<svg width="24" height="24" viewBox="0 0 24 24" fill="none" xmlns="http://www.w3.org/2000/svg">
<path d="M12 2.00024C17.5229 2.00024 22 6.4777 22 12.0002C22 17.5228 17.5229 22.0002 12 22.0002C6.47779 22.0002 2 17.5225 2 12.0002C2 6.47803 6.47779 2.00024 12 2.00024ZM12 3.50024C7.30621 3.50024 3.5 7.30646 3.5 12.0002C3.5 16.694 7.30621 20.5002 12 20.5002C16.6944 20.5002 20.5 16.6944 20.5 12.0002C20.5 7.3061 16.6944 3.50024 12 3.50024ZM12.0051 15.0461C12.4193 15.0461 12.7551 15.3819 12.7551 15.7961C12.7551 16.1758 12.4729 16.4896 12.1069 16.5393L11.9951 16.5461C11.5809 16.5461 11.2451 16.2104 11.2451 15.7961C11.2451 15.4164 11.5273 15.1027 11.8933 15.053L12.0051 15.0461ZM11.9951 7.45434C12.3748 7.45434 12.6886 7.7365 12.7383 8.10257L12.7451 8.20434V12.6233C12.7451 13.0376 12.4093 13.3733 11.9951 13.3733C11.6154 13.3733 11.3016 13.0912 11.2519 12.7251L11.2451 12.6233V8.20434C11.2451 7.79013 11.5809 7.45434 11.9951 7.45434Z" fill="#3B5162"/>
</svg>
