<svg width="24" height="24" viewBox="0 0 24 24" fill="none" xmlns="http://www.w3.org/2000/svg">
<path d="M6.48311 2.81529C8.2404 2.25003 10.1419 2.45344 11.733 3.35623L11.9964 3.51429L12.2645 3.35535C13.773 2.5013 15.5624 2.27309 17.2463 2.73623L17.512 2.81535C21.1847 3.9978 22.8291 8.00801 21.5937 11.8452C20.9743 13.6301 19.9584 15.2485 18.6174 16.5824C16.7927 18.3545 14.7812 19.9194 12.6218 21.2473L12.3926 21.3897C12.1598 21.5344 11.8656 21.5369 11.6304 21.3961L11.3849 21.2491C9.22254 19.9194 7.21101 18.3545 5.38004 16.5762C4.04534 15.2485 3.02947 13.6301 2.40482 11.8295C1.17386 8.00569 2.81152 3.99738 6.48311 2.81529ZM11.3746 4.85427C10.0706 3.96289 8.43331 3.72339 6.93153 4.20646C4.08746 5.12212 2.79808 8.27801 3.79207 11.3664C4.33877 12.9417 5.23505 14.3696 6.40582 15.5343C8.15375 17.2319 10.0805 18.7308 12.144 19.9998L12.0013 19.9098L12.4691 19.6156C14.1026 18.561 15.641 17.3642 17.0636 16.0421L17.5916 15.5405C18.7687 14.3696 19.665 12.9417 20.2064 11.382C21.2047 8.28096 19.9097 5.12284 17.0641 4.20669C15.4873 3.70082 13.766 3.99057 12.436 4.98625C12.1806 5.17742 11.8307 5.18111 11.5714 4.99538L11.3746 4.85427ZM15.8703 6.48374C17.1917 6.90551 18.1288 8.08859 18.2457 9.47853C18.2796 9.8807 17.9807 10.2341 17.5782 10.2679C17.1757 10.3017 16.822 10.0031 16.7881 9.60096C16.7206 8.79803 16.1814 8.11735 15.4252 7.87597C15.0404 7.75316 14.8281 7.34194 14.951 6.95749C15.0739 6.57304 15.4855 6.36093 15.8703 6.48374Z" fill="#3B5162"/>
</svg>
