<svg width="24" height="24" viewBox="0 0 24 24" fill="none" xmlns="http://www.w3.org/2000/svg">
<path d="M12.0001 3C12.4205 3 12.7679 3.3078 12.8229 3.70716L12.8304 3.81818L12.83 18.201L18.0813 13.0047C18.4049 12.6845 18.9306 12.6834 19.2555 13.0022C19.551 13.2921 19.5787 13.7466 19.3383 14.0674L19.2581 14.1593L12.5889 20.7593L12.5715 20.7755C12.5535 20.7923 12.5348 20.8082 12.5154 20.8234L12.5889 20.7593C12.5568 20.7911 12.5227 20.8198 12.487 20.8453C12.4645 20.8607 12.4412 20.8757 12.4172 20.8895C12.3636 20.9206 12.3076 20.9448 12.2499 20.9626C12.2296 20.9686 12.2089 20.9742 12.1878 20.979C12.1717 20.9829 12.1554 20.9861 12.139 20.9888C12.1212 20.9915 12.1035 20.9939 12.0855 20.9957C12.0675 20.9978 12.0491 20.999 12.0306 20.9997C12.0204 20.9998 12.0103 21 12.0001 21L11.9725 20.9998C11.9521 20.9991 11.9317 20.9977 11.9113 20.9955L12.0001 21C11.9527 21 11.9062 20.9961 11.861 20.9886C11.8404 20.9852 11.8197 20.9809 11.7991 20.9759C11.7828 20.9719 11.7668 20.9674 11.7509 20.9625C11.7321 20.9567 11.7132 20.9501 11.6945 20.9428C11.6751 20.9352 11.6562 20.927 11.6377 20.9182C11.6235 20.9114 11.6089 20.9039 11.5945 20.896C11.5675 20.8809 11.5421 20.865 11.5177 20.8478C11.5139 20.8451 11.5097 20.8421 11.5055 20.839C11.4684 20.8117 11.4357 20.7834 11.4054 20.7528L4.74198 14.1594C4.41839 13.8392 4.41948 13.3212 4.74441 13.0023C5.0398 12.7124 5.50114 12.687 5.8257 12.9253L5.91866 13.0047L11.169 18.2L11.1698 3.81818C11.1698 3.36631 11.5415 3 12.0001 3Z" fill="#3B5162"/>
</svg>
