<svg width="24" height="24" viewBox="0 0 24 24" fill="none" xmlns="http://www.w3.org/2000/svg">
<path d="M11.9999 21C11.5795 21 11.2321 20.6922 11.1771 20.2928L11.1696 20.1818L11.17 5.799L5.91871 10.9953C5.59515 11.3155 5.06942 11.3166 4.74446 10.9978C4.44905 10.7079 4.42125 10.2534 4.66174 9.9326L4.74193 9.84067L11.4111 3.24067L11.4285 3.22449C11.4465 3.20773 11.4652 3.19176 11.4846 3.17661L11.4111 3.24067C11.4432 3.20887 11.4773 3.18022 11.513 3.15472C11.5355 3.1393 11.5588 3.12434 11.5828 3.11054C11.6364 3.07936 11.6924 3.0552 11.7501 3.03737C11.7704 3.03137 11.7911 3.02579 11.8122 3.02099C11.8283 3.0171 11.8446 3.01389 11.861 3.01117C11.8788 3.00845 11.8965 3.00608 11.9145 3.00427C11.9325 3.00223 11.9509 3.00097 11.9694 3.00031C11.9796 3.00018 11.9897 3 11.9999 3L12.0275 3.00024C12.0479 3.00092 12.0683 3.00234 12.0887 3.00449L11.9999 3C12.0473 3 12.0938 3.00392 12.139 3.01144C12.1596 3.0148 12.1803 3.01906 12.2009 3.0241C12.2172 3.02814 12.2332 3.03258 12.2491 3.03748C12.2679 3.04327 12.2868 3.04988 12.3055 3.05718C12.3249 3.06477 12.3438 3.07297 12.3623 3.08183C12.3765 3.08855 12.3911 3.09607 12.4055 3.10404C12.4325 3.11908 12.4579 3.135 12.4823 3.15219C12.4861 3.1549 12.4903 3.15793 12.4945 3.161C12.5316 3.18829 12.5643 3.21657 12.5946 3.24718L19.258 9.84062C19.5816 10.1608 19.5805 10.6788 19.2556 10.9977C18.9602 11.2876 18.4989 11.313 18.1743 11.0747L18.0813 10.9953L12.831 5.8L12.8302 20.1818C12.8302 20.6337 12.4585 21 11.9999 21Z" fill="#3B5162"/>
</svg>
