<svg width="24" height="24" viewBox="0 0 24 24" fill="none" xmlns="http://www.w3.org/2000/svg">
<path d="M14.4738 2.00024C14.5168 2.00024 14.5591 2.00387 14.6001 2.01084L14.7365 2.01194C14.9407 2.01194 15.136 2.0952 15.2775 2.24249L20.3435 7.51849C20.4776 7.65817 20.5525 7.8443 20.5525 8.03794V17.2279C20.5525 19.7229 18.5282 21.8649 16.0725 21.8649H8.08449C5.50133 21.8649 3.50049 19.8255 3.50049 17.2279V6.49094C3.50049 4.02977 5.59719 2.01194 8.08449 2.01194L14.3477 2.0108C14.3887 2.00386 14.4308 2.00024 14.4738 2.00024ZM13.7235 3.51024L8.08449 3.51194C6.41302 3.51194 5.00049 4.87134 5.00049 6.49094V17.2279C5.00049 19.0034 6.33625 20.3649 8.08449 20.3649H16.0725C17.6802 20.3649 19.0525 18.9129 19.0525 17.2279L19.0515 8.98324L18.1757 8.98631C17.8422 8.98591 17.4629 8.9852 17.0412 8.98424C15.2709 8.9805 13.8265 7.59372 13.729 5.84765L13.7238 5.65924L13.7235 3.51024ZM11.6408 8.69084C12.0205 8.69084 12.3343 8.973 12.3839 9.33907L12.3908 9.44084L12.3905 14.1952L13.9479 12.634C14.2402 12.3405 14.7151 12.3395 15.0086 12.6318C15.2754 12.8975 15.3005 13.3141 15.0833 13.6082L15.0108 13.6925L12.1718 16.5435L12.1281 16.584C12.1177 16.5929 12.1071 16.6015 12.0962 16.6098L12.1718 16.5435C12.135 16.5804 12.0954 16.6127 12.0535 16.6404C12.039 16.6498 12.0235 16.6592 12.0076 16.6682C11.9942 16.676 11.981 16.6828 11.9676 16.6893C11.9512 16.697 11.9344 16.7045 11.9172 16.7113C11.9002 16.7182 11.8825 16.7245 11.8646 16.7301C11.851 16.7341 11.8373 16.738 11.8234 16.7415C11.8034 16.7467 11.7832 16.7509 11.763 16.7542C11.7511 16.7559 11.739 16.7576 11.7268 16.759C11.7033 16.762 11.6796 16.7636 11.6558 16.7641C11.6509 16.7638 11.6459 16.7638 11.6408 16.7638L11.6258 16.7641C11.6014 16.7636 11.577 16.762 11.5527 16.7591L11.6408 16.7638C11.5999 16.7638 11.5598 16.7606 11.5208 16.7543C11.4988 16.7512 11.4771 16.7467 11.4556 16.7412C11.4445 16.738 11.4331 16.7348 11.4218 16.7314C11.4 16.7252 11.3787 16.7177 11.3576 16.7091C11.3464 16.704 11.3353 16.6991 11.3243 16.694C11.3067 16.6865 11.2894 16.6776 11.2724 16.668C11.2574 16.6588 11.2422 16.6495 11.2275 16.6398C11.2156 16.6327 11.2043 16.6247 11.1931 16.6164L11.1853 16.6098C11.1745 16.6015 11.1639 16.5929 11.1535 16.584L11.1088 16.5434L8.27085 13.6924C7.97862 13.3988 7.97971 12.9239 8.27327 12.6317C8.54015 12.366 8.95686 12.3428 9.24998 12.5613L9.33393 12.6341L10.8905 14.1982L10.8908 9.44084C10.8908 9.02663 11.2266 8.69084 11.6408 8.69084ZM15.2235 4.35124L15.2238 5.65924C15.2238 6.66581 16.0381 7.48212 17.0445 7.48425L18.2315 7.48424L15.2235 4.35124Z" fill="#3B5162"/>
</svg>
