<svg width="24" height="24" viewBox="0 0 24 24" fill="none" xmlns="http://www.w3.org/2000/svg">
<path d="M17.5 7.2C19.2 8.2 20 10 20 12C20 14.5 17.5 16.5 15 16.5H12.4L11.8 20.1C11.7532 20.3293 11.6276 20.5349 11.4449 20.6811C11.2621 20.8272 11.0339 20.9047 10.8 20.9H8.1C8.02501 20.9015 7.95064 20.8861 7.88239 20.855C7.81415 20.8239 7.75378 20.7778 7.70577 20.7202C7.65775 20.6626 7.62331 20.5949 7.605 20.5222C7.58669 20.4494 7.58498 20.3735 7.6 20.3L7.8 18.9M10 13H12.5C15 13 17.5 10.5 17.5 8C17.5 5 15.6 3 12.5 3H7C6.5 3 6 3.5 6 4L4 18C4 18.5 4.5 19 5 19H7.8L9 14C9.1 13.4 9.4 13 10 13Z" stroke="#3B5162" stroke-width="1.5" stroke-linecap="round" stroke-linejoin="round"/>
</svg>
