<svg width="24" height="24" viewBox="0 0 24 24" fill="none" xmlns="http://www.w3.org/2000/svg">
<path fill-rule="evenodd" clip-rule="evenodd" d="M1.25 8C1.25 6.48122 2.48122 5.25 4 5.25H20C21.5188 5.25 22.75 6.48122 22.75 8V16C22.75 17.5188 21.5188 18.75 20 18.75H18C17.5858 18.75 17.25 18.4142 17.25 18C17.25 17.5858 17.5858 17.25 18 17.25H20C20.6904 17.25 21.25 16.6904 21.25 16V8C21.25 7.30964 20.6904 6.75 20 6.75H4C3.30964 6.75 2.75 7.30964 2.75 8V16C2.75 16.6904 3.30964 17.25 4 17.25H6C6.41421 17.25 6.75 17.5858 6.75 18C6.75 18.4142 6.41421 18.75 6 18.75H4C2.48122 18.75 1.25 17.5188 1.25 16V8Z" fill="#3B5162"/>
<path d="M20 9.5C20 10.3284 19.3284 11 18.5 11C17.6716 11 17 10.3284 17 9.5C17 8.67157 17.6716 8 18.5 8C19.3284 8 20 8.67157 20 9.5Z" fill="#3B5162"/>
<path fill-rule="evenodd" clip-rule="evenodd" d="M5.25 2C5.25 1.58579 5.58579 1.25 6 1.25H18C18.4142 1.25 18.75 1.58579 18.75 2V6C18.75 6.41421 18.4142 6.75 18 6.75H6C5.58579 6.75 5.25 6.41421 5.25 6V2ZM6.75 2.75V5.25H17.25V2.75H6.75Z" fill="#3B5162"/>
<path fill-rule="evenodd" clip-rule="evenodd" d="M5.25 14C5.25 13.5858 5.58579 13.25 6 13.25H18C18.4142 13.25 18.75 13.5858 18.75 14V22C18.75 22.4142 18.4142 22.75 18 22.75H6C5.58579 22.75 5.25 22.4142 5.25 22V14ZM6.75 14.75V21.25H17.25V14.75H6.75Z" fill="#3B5162"/>
</svg>
