<svg width="24" height="24" viewBox="0 0 24 24" fill="none" xmlns="http://www.w3.org/2000/svg">
<path d="M21.9636 6.7743L20.535 2.48859C20.4378 2.19675 20.1647 1.99992 19.8572 2H4.14287C3.83529 1.99992 3.5622 2.19675 3.46502 2.48859L2.03642 6.7743C2.01441 6.84101 2.0021 6.91053 2.00001 6.98072C2.00001 6.98787 2.00001 6.99285 2.00001 7.00001V7.71431C2.00261 8.83345 2.53183 9.88613 3.42857 10.5557C3.42857 10.5615 3.42857 10.5657 3.42857 10.5714V19.8571C3.42857 21.0406 4.38796 22 5.57142 22H18.4286C19.612 22 20.5714 21.0406 20.5714 19.8571V10.5714C20.5714 10.5657 20.5714 10.5614 20.5714 10.5557C21.4681 9.88613 21.9974 8.83345 22 7.71431V7.00001C22 6.99285 22 6.98787 22 6.98072C21.9979 6.91049 21.9856 6.84097 21.9636 6.7743ZM4.7 3.42856H19.3422L20.295 6.28571H3.7L4.7 3.42856ZM13.4286 20.5714H10.5714V14.8571H13.4286V20.5714ZM19.1429 19.8571C19.1429 20.2516 18.8231 20.5714 18.4286 20.5714H14.8571V14.1429C14.8571 13.7484 14.5373 13.4286 14.1428 13.4286H9.85713C9.46263 13.4286 9.14283 13.7484 9.14283 14.1429V20.5714H5.57142C5.17692 20.5714 4.85712 20.2516 4.85712 19.8571V11.2143C5.85954 11.4201 6.90192 11.1808 7.71428 10.5586C8.98936 11.4951 10.7249 11.4951 12 10.5586C13.2751 11.4951 15.0106 11.4951 16.2857 10.5586C17.0981 11.1809 18.1404 11.4201 19.1429 11.2143V19.8571ZM18.4286 9.85712C17.8109 9.85675 17.2243 9.58579 16.8235 9.1157C16.564 8.81868 16.1127 8.78829 15.8157 9.04786C15.7916 9.06891 15.7689 9.0916 15.7479 9.1157C14.9536 10.0021 13.5912 10.0768 12.7048 9.28265C12.6462 9.23009 12.5904 9.17438 12.5378 9.1157C12.2583 8.81868 11.7909 8.80445 11.4938 9.08402C11.4829 9.09428 11.4724 9.10482 11.4621 9.1157C10.6679 10.0021 9.30552 10.0768 8.41908 9.28265C8.3604 9.23009 8.30469 9.17438 8.25213 9.1157C7.97259 8.81868 7.50514 8.80445 7.20811 9.08402C7.19723 9.09428 7.18664 9.10482 7.17643 9.1157C6.77569 9.58579 6.18917 9.85675 5.57142 9.85712C4.38796 9.85712 3.42857 8.89774 3.42857 7.71427H20.5714C20.5714 8.89774 19.612 9.85712 18.4286 9.85712Z" fill="#3B5162"/>
</svg>
