<svg width="24" height="24" viewBox="0 0 24 24" fill="none" xmlns="http://www.w3.org/2000/svg">
<path d="M12.0099 2.00004C14.3242 2.00004 16.3577 3.44901 17.103 5.56664C17.2407 5.95805 17.0299 6.3852 16.632 6.52072C16.2342 6.65624 15.8 6.44881 15.6622 6.0574C15.1279 4.53928 13.6694 3.50004 12.0068 3.50004C9.93984 3.49198 8.24532 5.08145 8.13294 7.08576L8.12705 7.28098L8.127 8.626L15.8833 8.62635C18.3601 8.62635 20.3815 10.5457 20.495 12.9554L20.5 13.1692V17.4571C20.5 19.9661 18.433 22 15.8833 22H8.11668C5.56704 22 3.5 19.9661 3.5 17.4571V13.1692C3.5 11.1823 4.79639 9.49326 6.6022 8.87644L6.60239 7.2777C6.61542 4.35083 9.03752 1.98849 12.0099 2.00004ZM15.8833 10.1263H8.11668C6.40915 10.1263 5.02466 11.4886 5.02466 13.1692V17.4571C5.02466 19.1377 6.40915 20.5 8.11668 20.5H15.8833C17.5908 20.5 18.9753 19.1377 18.9753 17.4571V13.1692C18.9753 11.4886 17.5908 10.1263 15.8833 10.1263ZM12.0002 13.4524C12.3861 13.4524 12.7051 13.7346 12.7556 14.1006L12.7625 14.2024V16.4243C12.7625 16.8385 12.4212 17.1743 12.0002 17.1743C11.6143 17.1743 11.2953 16.8922 11.2448 16.5261L11.2379 16.4243V14.2024C11.2379 13.7882 11.5792 13.4524 12.0002 13.4524Z" fill="#3B5162"/>
</svg>
