<svg xmlns="http://www.w3.org/2000/svg" xmlns:xlink="http://www.w3.org/1999/xlink" width="403.376" height="383.207" viewBox="0 0 403.376 383.207">
  <defs>
    <linearGradient id="linear-gradient" x1="0.5" x2="0.5" y2="1">
      <stop offset="0" stop-color="#ea9769"/>
      <stop offset="1" stop-color="#ea6969"/>
    </linearGradient>
  </defs>
  <path id="Path_1084" data-name="Path 1084" d="M346.2,3.333H63.84A60.58,60.58,0,0,0,3.333,63.84v57.1A85.884,85.884,0,0,0,23.5,176.322V366.372a20.168,20.168,0,0,0,20.169,20.168h161.35a20.166,20.166,0,0,0,20.169-20.168V265.528h80.676V366.372a20.167,20.167,0,0,0,20.168,20.168h40.338a20.166,20.166,0,0,0,20.168-20.168V176.3a85.8,85.8,0,0,0,20.169-55.384V63.84A60.58,60.58,0,0,0,346.2,3.333ZM366.372,63.84v57.1c0,22.992-17.123,42.6-38.14,43.706l-2.2.04A40.378,40.378,0,0,1,285.7,124.347V43.671H346.2A20.189,20.189,0,0,1,366.372,63.84ZM164.684,124.347V43.671H245.36v80.676a40.338,40.338,0,0,1-80.676,0ZM43.671,63.84A20.189,20.189,0,0,1,63.84,43.671h60.507v80.676a40.378,40.378,0,0,1-40.338,40.337l-2.2-.061c-21.016-1.089-38.139-20.693-38.139-43.686ZM164.684,285.7H84.008V225.19h80.676Z" transform="translate(-3.333 -3.333)" fill="url(#linear-gradient)"/>
</svg>