<svg width="24" height="24" viewBox="0 0 24 24" fill="none" xmlns="http://www.w3.org/2000/svg">
<path d="M16.188 2.5C19.3978 2.5 22 5.16116 22 8.44374V15.5563C22 18.8388 19.3978 21.5 16.188 21.5H7.81204C4.60219 21.5 2 18.8388 2 15.5563V8.44374C2 5.16116 4.60219 2.5 7.81204 2.5H16.188ZM16.188 3.98651H7.81204C5.40498 3.98651 3.45358 5.98213 3.45358 8.44374V15.5563C3.45358 18.0179 5.40498 20.0135 7.81204 20.0135H16.188C18.595 20.0135 20.5464 18.0179 20.5464 15.5563L20.546 15.279L17.3499 15.2798C15.5084 15.2787 14.0159 13.7531 14.0147 11.8695C14.0147 10.0491 15.4101 8.56244 17.1673 8.46431L17.3504 8.45916L20.546 8.459L20.5464 8.44374C20.5464 6.05454 18.7081 4.10431 16.3991 3.99165L16.188 3.98651ZM20.546 9.945L17.3508 9.94567C16.3109 9.94632 15.4683 10.8074 15.4683 11.869C15.4689 12.8811 16.2329 13.7102 17.2033 13.7874L17.3504 13.7933L20.546 13.793V9.945ZM17.7942 11.0652C18.1956 11.0652 18.521 11.3979 18.521 11.8084C18.521 12.1847 18.2475 12.4957 17.8928 12.5449L17.7942 12.5517H17.4921C17.0907 12.5517 16.7653 12.2189 16.7653 11.8084C16.7653 11.4322 17.0388 11.1212 17.3935 11.072L17.4921 11.0652H17.7942ZM12.3539 6.99736C12.7553 6.99736 13.0807 7.33013 13.0807 7.74062C13.0807 8.1169 12.8073 8.42788 12.4525 8.47709L12.3539 8.48388H7.12203C6.72063 8.48388 6.39524 8.15111 6.39524 7.74062C6.39524 7.36434 6.66866 7.05337 7.0234 7.00415L7.12203 6.99736H12.3539Z" fill="#3B5162"/>
</svg>
